# xmcd
#
# Track frame offsets: 
#        150
#        15175
#        26932
#        40857
#        55080
#        66630
#        81385
#        94847
#        107690
#        121132
#        136175
#        145260
#
# Disc length: 2096 seconds
#
# Revision: 2
# Processed by: cddbd v1.5.2PL0 Copyright (c) Steve Scherf et al.
# Submitted via: ExactAudioCopy v0.90b4
#
DISCID=a1082e0c
DTITLE=Nat King Cole - His Golden Voice [CD1]
DYEAR=2000
DGENRE=Jazz
TTITLE0=Body And Soul
TTITLE1=Is You Or Isn't You My Baby
TTITLE2=My Lips Remember Your Kisses
TTITLE3=Sweet Lorraine
TTITLE4=Honeysuckle Rose
TTITLE5=That Ain't Right
TTITLE6=Hit That Jive, Jack
TTITLE7=Jack The Bell Boy
TTITLE8=Blue Because Of You
TTITLE9=This Will Make You Laugh
TTITLE10=Solid Potato Salad
TTITLE11=Gone With The Draft
EXTD=YEAR: 2003
EXTT0=
EXTT1=
EXTT2=
EXTT3=
EXTT4=
EXTT5=
EXTT6=
EXTT7=
EXTT8=
EXTT9=
EXTT10=
EXTT11=
PLAYORDER=
